<svg width="20" height="20" viewBox="0 0 20 20" fill="none" xmlns="http://www.w3.org/2000/svg">
<path fill-rule="evenodd" clip-rule="evenodd" d="M10.0001 13.3333C10.2134 13.3333 10.4267 13.2516 10.5892 13.0891L13.9226 9.75579C14.2484 9.42996 14.2484 8.90329 13.9226 8.57746C13.5967 8.25163 13.0701 8.25163 12.7442 8.57746L9.41091 11.9108C9.08508 12.2366 9.08508 12.7633 9.41091 13.0891C9.57341 13.2516 9.78675 13.3333 10.0001 13.3333ZM10.0001 5.83329C13.6759 5.83329 16.6667 8.82413 16.6667 12.5C16.6667 13.0666 16.5959 13.625 16.4559 14.1666H3.54425C3.40425 13.6258 3.33341 13.0666 3.33341 12.5C3.33341 8.82413 6.32425 5.83329 10.0001 5.83329ZM17.8592 15.2775C18.1742 14.3866 18.3334 13.4525 18.3334 12.5C18.3334 7.90496 14.5951 4.16663 10.0001 4.16663C5.40508 4.16663 1.66675 7.90496 1.66675 12.5C1.66675 13.4533 1.82675 14.3883 2.14175 15.2783C2.14591 15.2916 2.15508 15.3008 2.16091 15.3133C2.16675 15.3275 2.17508 15.3383 2.18175 15.3525C2.21925 15.4325 2.26675 15.5033 2.32508 15.5641C2.34008 15.5808 2.35675 15.595 2.37341 15.6108C2.43258 15.665 2.49758 15.7083 2.56925 15.7433C2.58925 15.7533 2.60841 15.7641 2.62925 15.7725C2.72425 15.8091 2.82341 15.8341 2.92758 15.8341C2.93008 15.8341 2.93258 15.8333 2.93425 15.8333H17.0734C17.0809 15.8333 17.0876 15.8291 17.0951 15.8291C17.1634 15.8275 17.2259 15.8075 17.2909 15.7891C17.3317 15.7783 17.3742 15.775 17.4126 15.7575C17.4642 15.7341 17.5067 15.6966 17.5534 15.6625C17.5934 15.6333 17.6384 15.61 17.6726 15.5741C17.7059 15.5391 17.7259 15.4941 17.7542 15.4533C17.7876 15.4033 17.8242 15.3566 17.8459 15.2991C17.8492 15.2916 17.8559 15.2858 17.8592 15.2775Z" fill="#2E2D37"/>
</svg>
